<?xml version="1.0" standalone="no"?>
<!DOCTYPE svg PUBLIC "-//W3C//DTD SVG 1.1//EN" "http://www.w3.org/Graphics/SVG/1.1/DTD/svg11.dtd" >
<svg xmlns="http://www.w3.org/2000/svg">
<metadata>
Created by FontForge 20120731 at Fri Mar 17 01:04:03 2017
 By admin
</metadata>
<defs>
<font id="iconfont" horiz-adv-x="1024" >
  <font-face 
    font-family="iconfont"
    font-weight="500"
    font-stretch="normal"
    units-per-em="1024"
    panose-1="2 0 6 3 0 0 0 0 0 0"
    ascent="896"
    descent="-128"
    x-height="792"
    bbox="44 -125 1638 897"
    underline-thickness="0"
    underline-position="0"
    unicode-range="U+0078-E7AA"
  />
<missing-glyph 
 />
    <glyph glyph-name=".notdef" 
 />
    <glyph glyph-name=".notdef" 
 />
    <glyph glyph-name=".null" horiz-adv-x="0" 
 />
    <glyph glyph-name="nonmarkingreturn" horiz-adv-x="341" 
 />
    <glyph glyph-name="x" unicode="x" horiz-adv-x="1001" 
d="M281 543q-27 -1 -53 -1h-83q-18 0 -36.5 -6t-32.5 -18.5t-23 -32t-9 -45.5v-76h912v41q0 16 -0.5 30t-0.5 18q0 13 -5 29t-17 29.5t-31.5 22.5t-49.5 9h-133v-97h-438v97zM955 310v-52q0 -23 0.5 -52t0.5 -58t-10.5 -47.5t-26 -30t-33 -16t-31.5 -4.5q-14 -1 -29.5 -0.5
t-29.5 0.5h-32l-45 128h-439l-44 -128h-29h-34q-20 0 -45 1q-25 0 -41 9.5t-25.5 23t-13.5 29.5t-4 30v167h911zM163 247q-12 0 -21 -8.5t-9 -21.5t9 -21.5t21 -8.5q13 0 22 8.5t9 21.5t-9 21.5t-22 8.5zM316 123q-8 -26 -14 -48q-5 -19 -10.5 -37t-7.5 -25t-3 -15t1 -14.5
t9.5 -10.5t21.5 -4h37h67h81h80h64h36q23 0 34 12t2 38q-5 13 -9.5 30.5t-9.5 34.5q-5 19 -11 39h-368zM336 498v228q0 11 2.5 23t10 21.5t20.5 15.5t34 6h188q31 0 51.5 -14.5t20.5 -52.5v-227h-327z" />
    <glyph glyph-name="better" unicode="&#xe652;" horiz-adv-x="1742" 
d="M503 359h122v-31h-122v31zM870 604l-762 223v-893l758 232l772 -232v893zM415 546q20 -8 33 -13q-25 -52 -34 -72q-15 7 -29 11q18 38 30 74zM304 544q18 -27 38 -65q-11 -5 -27 -16q-14 28 -38 65q16 9 27 16zM347 172q2 42 2 70v115q-16 -41 -50 -90q-13 11 -27 24
q18 20 36.5 53t31.5 74q-32 0 -57 -2v33q25 -2 66 -2v91q0 31 -2 49h36q-2 -32 -2 -50v-90q29 0 52 2v-33q-23 2 -52 2v-176q0 -29 2 -70h-36v0zM430 305q-20 36 -45 63q14 9 25 20q25 -33 47 -63q-14 -10 -27 -20zM658 319v-107q0 -27 -17 -32q-17 -6 -41 -9q-5 21 -16 35
q25 0 33 3t8 15v18h-122v-68h-32q2 51 2 111q0 61 -2 99h188q-1 -34 -1 -65zM693 404q-36 2 -69 2h-108q-28 0 -70 -2v29q37 -2 68 -2h34v30h-27q-26 0 -50 -2v29q25 -2 43 -2h34v34h-29q-28 0 -61 -1v28q33 -1 61 -1h29q0 21 -2 41h36q-2 -23 -2 -41h40q31 0 54 1v-28
q-26 1 -54 1h-40v-34h26q28 0 55 2v-29q-27 2 -57 2h-24v-30h44q32 0 70 1v-28h-1zM1067 492q21 23 33 40q13 17 21 34t12 28q18 -11 43 -22q-13 -10 -20 -22.5t-18 -27.5v-116q0 -29 2 -61h-40q2 34 2 61v77q-7 -13 -21 -28t-29 -31q-16 16 -31 26q25 18 46 42zM1434 273
q-35 2 -61 2h-131q0 -74 2 -97h-38q2 25 2 97h-131q-23 0 -52 -2v36q28 -2 54 -2h129q0 30 -2 50h38q-2 -16 -2 -50h129q27 0 63 2v-36zM1425 373.5q-11 -12.5 -31 -12.5h-109q-38 0 -39 37v49q-38 -18 -58 -25q-5 16 -20 30q34 7 78 27v56q0 34 -2 55h41q-4 -21 -4 -52v-43
q28 13 52 27.5t52 40.5q11 -14 31 -34q-24 -9 -63 -30t-72 -38v-46q0 -24 25 -24h63q24 0 27.5 11t6.5 36q22 -13 42 -18q-9 -34 -20 -46.5zM503 303h122v-36h-122v36z" />
    <glyph glyph-name="arrow-round-left" unicode="&#xe604;" 
d="M359 384l383 384h-76l-384 -384l384 -383h76z" />
    <glyph glyph-name="message-checked" unicode="&#xe640;" 
d="M77 651v-370q0 -54 38 -92t92 -38h195l7 -164l192 164h219q54 0 92.5 38t38.5 92v370q0 54 -38.5 92t-92.5 38h-613q-54 0 -92 -38t-38 -92v0zM639 445.5q0 25.5 18 43.5t43.5 18t43.5 -18t18 -43.5t-18 -43.5t-43.5 -18t-43.5 18t-18 43.5zM450 445.5q0 25.5 18 43.5
t44 18t44 -18t18 -43.5t-18 -43.5t-44 -18t-44 18t-18 43.5zM265 445.5q0 25.5 18 43.5t44 18t44 -18t18 -43.5t-18 -43.5t-44 -18t-44 18t-18 43.5z" />
    <glyph glyph-name="publish-checked" unicode="&#xe600;" 
d="M956 713l-95 95q-8 8 -20 8t-20 -8l-41 -41q-8 -8 -8 -20t8 -20l95 -95q8 -8 20 -8t20 8l41 41q8 8 8 20t-8 20zM392 338l94 -94q9 -8 20.5 -8t20.5 8l330 330q8 9 8 20.5t-8 20.5l-94 94q-9 8 -20.5 8t-20.5 -8l-330 -330q-8 -9 -8 -20.5t8 -20.5zM353 333
q-9 -2 -17.5 -10.5t-10.5 -18.5l-31 -140q-3 -10 2.5 -15.5t15.5 -2.5l140 31q10 2 18.5 10.5t10.5 17.5l1 6l-123 123zM904.5 472q-10.5 0 -18 -7.5t-7.5 -18.5v0v0v-407q0 -15 -10.5 -25t-24.5 -10h-657q-15 0 -25 10t-10 25v657q0 14 10 24.5t25 10.5h407q10 0 17.5 7.5
t7.5 18t-7.5 18t-17.5 8.5v0h-407q-36 0 -61.5 -25.5t-25.5 -61.5v-658q0 -35 25.5 -60.5t61.5 -25.5h657q36 0 61.5 25.5t25.5 60.5v408v0q0 11 -8 18.5t-18.5 7.5z" />
    <glyph glyph-name="collect" unicode="&#xe60a;" 
d="M952 495q-7 20 -29 35q-27 18 -73 29q-43 10 -97 15q-40 3 -60 3q-7 0 -11 1q-3 0 -4 3q-16 44 -31 79q-26 59 -52 95q-22 31 -45 45q-35 23 -70 2q-21 -12 -42 -39q-29 -38 -57 -101q-17 -40 -32 -81q-1 -3 -3 -3q-1 0 -3.5 -0.5t-4.5 -0.5q-15 0 -54 -2q-25 -2 -49 -5
q-42 -6 -72 -14q-44 -13 -66 -32q-26 -21 -26 -50q1 -18 9 -38q15 -32 50 -71q17 -18 40 -39q31 -29 69 -57q7 -6 5 -14q-17 -58 -26 -108q-6 -33 -8 -60v-31q0 -24 8 -46q16 -45 66 -46q22 -1 51 8q39 12 89 40q37 21 86 54q2 2 3 2v0q73 -46 90 -56q46 -25 80 -37
q42 -14 71 -10q30 3 45 26q16 23 18 62q1 26 -2 52q-2 25 -7 48q-8 47 -26 107q-1 3 1 5q7 5 35 27q31 25 62 55q17 18 33 37q27 32 36 59q11 29 3 52zM937 467q-2 -19 -17 -43q-26 -41 -88 -96q-29 -27 -69 -56q-3 -2 -2 -6q10 -32 18 -63q17 -69 19 -112q3 -44 -4 -70
q-5 -17 -16 -27q-12 -12 -34 -12q-23 -1 -55 10q-35 12 -79 37q-37 20 -89 56q-7 5 -8 4q-1 0 -9 -5q-59 -40 -96 -60q-64 -34 -106 -41q-17 -3 -31 0q-26 5 -36 33q-7 20 -7 52q-1 24 3 48q5 36 15 77q6 26 16 63q4 12 4 13q-1 3 -5 5.5t-5 3.5q-1 0 -1 1q-43 32 -80 67
q-34 31 -54 57q-23 31 -29 54q-8 26 8 45q9 11 27 20q23 13 60 21q32 7 77 12q8 1 56 4q8 0 37 1q4 0 5 3q7 20 14 37q27 73 55 120q24 40 48 60q18 14 35 14t35 -15q18 -14 36 -42q28 -40 56 -109q10 -25 24 -65q1 -3 4 -3h6t7 -0.5t6 -0.5q18 0 39 -2q27 -1 52 -4
q40 -5 69 -12q49 -13 72 -32q20 -17 17 -42z" />
    <glyph glyph-name="share" unicode="&#xe603;" 
d="M804 166q-61 0 -104 -44l-351 196q16 32 16 66q0 19 -6 41l346 215q42 -38 97 -38q61 0 103.5 43t42.5 103t-42.5 103t-103 43t-103 -43t-42.5 -103q0 -22 8 -47l-343 -213q-43 42 -102 42q-61 0 -103.5 -43t-42.5 -103t42.5 -103t103.5 -43q42 0 79 24l365 -203
q-6 -21 -6 -39q0 -60 43 -102.5t103 -42.5t103 42.5t43 103t-43 103t-103 42.5zM802 821q30 0 51.5 -21.5t21.5 -51.5t-21.5 -51.5t-51.5 -21.5t-51 21.5t-21 51.5t21 51.5t51 21.5zM147 384q0 30 21.5 51.5t51.5 21.5t51.5 -21.5t21.5 -51.5t-21.5 -51.5t-51.5 -21.5
t-51.5 21.5t-21.5 51.5zM804 -52q-30 0 -51.5 21t-21.5 51t21.5 51.5t51.5 21.5t51.5 -21.5t21.5 -51.5t-21.5 -51t-51.5 -21z" />
    <glyph glyph-name="arrow-right" unicode="&#xe607;" 
d="M767 384.5q0 10.5 -8 18.5l-422 422q-7 7 -18 7t-18.5 -7.5t-7.5 -18t8 -18.5l404 -404l-404 -404q-8 -7 -8 -17.5t7.5 -18t18.5 -7.5t18 7l422 422q8 8 8 18.5z" />
    <glyph glyph-name="zan-checked" unicode="&#xe613;" 
d="M883 693.5q-73 70.5 -177 70.5q-96 0 -167 -69v0v0l-27 -32l-27 30v0v0q-73 71 -167 71q-104 0 -177 -70.5t-73 -169.5t73 -170l332 -321q16 -15 39 -15t40 15l331 321q73 71 73 170t-73 169.5z" />
    <glyph glyph-name="zan" unicode="&#xe668;" 
d="M513 -23q-12 0 -78 50.5t-146 124t-121 126.5q-45 41 -77 108.5t-32 122.5q0 116 73.5 198t178.5 82q59 0 111.5 -41t89.5 -102q37 61 89.5 102t111.5 41q105 0 178.5 -82t73.5 -198q0 -55 -32 -122.5t-78 -109.5q-41 -53 -120 -126.5t-144 -123.5t-78 -50v0v0zM311 741
q-85 0 -145 -68t-60 -164q0 -46 28.5 -104.5t67.5 -92.5q1 -2 3 -3q39 -52 109.5 -116.5t115 -99t83.5 -63.5q37 27 84 64.5t115 100.5t107 113q1 2 3 3q39 35 67.5 93.5t28.5 104.5q0 96 -60 164t-145 68q-51 0 -100 -45.5t-79 -109.5q-6 -13 -22 -13t-22 13
q-30 64 -79 109.5t-100 45.5v0zM311 741z" />
    <glyph glyph-name="mine" unicode="&#xe614;" 
d="M512 799q57 0 102 -35q22 -17 36 -39q14 -23 19 -49v0q12 -74 3 -141q-11 -75 -47 -119v0q-48 -59 -50 -107q-2 -31 14 -52q19 -26 41.5 -43.5t50.5 -29t46 -16.5t50 -12q23 -5 34 -8q41 -11 61 -25v0q34 -25 42 -83q2 -13 2 -26h-808q0 12 2 24q3 28 13 48q11 24 29 37
v0q21 14 62 25q10 3 33 8q32 7 50 12t46 16.5t50.5 29t41.5 43.5q16 21 14 52q-2 48 -50 107v0q-36 44 -47 119q-9 67 3 141v0v0q5 26 19 49q14 22 36 39q45 35 102 35zM512 840q-71 0 -128.5 -44t-68.5 -113q-7 -51 -7.5 -101t15 -103t44.5 -89q18 -22 28 -41t12 -30.5
t1 -20.5t-3 -13l-3 -3q-15 -21 -33 -35.5t-41.5 -24t-38.5 -14t-45 -11t-41 -9.5q-48 -13 -75 -32q-66 -47 -61 -163l2 -20v0h886q1 5 2 14t0 34t-6 47t-19 47t-36 41q-26 19 -74 31q-11 3 -40.5 9.5t-45 11.5t-39 14.5t-42 24t-33.5 35.5q-1 1 -2.5 3.5t-3 12t0.5 21
t12 30.5t28 41q30 36 45 89t14.5 103t-7.5 101q-11 69 -68.5 113t-128.5 44v0z" />
    <glyph glyph-name="liulan" unicode="&#xe723;" horiz-adv-x="1036" 
d="M968 399q-85 105 -201.5 162.5t-244.5 57.5t-244.5 -57.5t-200.5 -161.5q-5 -6 -5 -13v-25q0 -7 5 -12q84 -105 200.5 -162t244.5 -57t244.5 57.5t201.5 161.5q4 6 4 13v24q0 7 -4 12zM933 370q-79 -96 -186 -148t-224.5 -52t-225 52t-186.5 147v11q79 96 186.5 148
t225 52t224.5 -52.5t186 -147.5v-10v0zM522.5 525q-62.5 0 -106.5 -44t-44 -106t44 -106.5t106 -44.5q35 0 65 15q8 4 10.5 11.5t-1 14.5t-11 10t-14.5 -1q-23 -11 -49 -11q-46 0 -78.5 33t-32.5 79t32.5 78.5t78.5 32.5t79 -32.5t33 -78.5q0 -16 -5 -31q-2 -8 2 -15t12 -9
t15 2t9 11q6 21 6 42q0 62 -44 106t-106.5 44zM452 402q-6 -13 -6 -27q0 -10 10 -10t10 10t4 20q6 16 20.5 26t31.5 10q10 0 10 10t-10 10q-23 0 -42.5 -13.5t-27.5 -35.5z" />
    <glyph glyph-name="mine-checked" unicode="&#xe65d;" 
d="M511 897q56 0 112 -28t90.5 -69t34.5 -77v-157q0 -58 -27 -130.5t-75 -111.5q-20 -16 -17 -41t26 -35l276 -131q26 -11 36 -25v-90q0 -7 -5 -12t-12 -5h-878q-7 0 -12.5 5t-5.5 12v90q10 13 37 26l275 130q23 10 26 35.5t-17 40.5q-48 39 -74.5 111.5t-26.5 130.5v157
q0 36 34 77t90 69t113 28v0z" />
    <glyph glyph-name="theme-2" unicode="&#xe7aa;" 
d="M877 374q-5 -27 -36 -46q-63 -36 -174 -97q-61 -112 -98 -178q-20 -34 -50 -34h-1q-22 0 -43 19q-53 48 -146 136q-131 22 -200 36q-29 5 -41 29q-12 25 2 56q30 66 86 182q-17 129 -24 199q-3 27 16 48q20 23 50 19q66 -6 200 -22q114 55 180 86q15 7 30 7q22 0 38 -14
t20 -37q14 -69 36 -194q91 -95 135 -143q24 -26 20 -52v0zM825 397q-13 15 -32.5 35.5t-37.5 39.5t-33.5 35t-25.5 26.5l-10 10.5q-4 5 -5 11q-19 111 -37 199q-3 17 -16 17q-5 0 -12 -3q-62 -29 -185 -89q-6 -3 -12 -2q-38 7 -206 24v0q-9 0 -13 -6q-6 -6 -5 -15
q14 -139 24 -204q1 -7 -2 -12q-47 -97 -88 -187q-6 -12 -3 -18t11 -7q134 -26 206 -37q6 -1 11 -5l10.5 -10t27.5 -26t36 -34t40 -37.5t36 -32.5q9 -8 14.5 -8t12.5 12q44 77 101 183q3 6 9 9l12.5 7t32.5 18t42.5 23.5t47.5 26.5t43 24q14 8 15 15q1 6 -9 17v0zM935 -40
q-6 -6 -15 -6t-15 6l-172 172q-6 7 -6 15.5t6 15t15 6.5t15 -6l172 -172q7 -7 7 -15.5t-7 -15.5v0z" />
    <glyph glyph-name="about" unicode="&#xe602;" 
d="M583 196q-21 0 -25 5q-9 8 -9 21t4 21q0 5 2.5 12.5t2.5 9.5l25 85q4 8 4 25v22q0 28 -21 42q-17 18 -55 18q-9 0 -43 -9q-38 -13 -47 -17l-9 -26q2 0 7.5 2.5t10.5 2.5q4 0 10.5 2t10.5 2q7 0 15.5 -2t9.5 -2q9 -9 9 -22t-4.5 -21.5t-4.5 -20.5l-25 -86q-4 -8 -4 -25
v-22q0 -21 21 -42q17 -17 55 -17q30 0 43 4q26 8 47 17l9 26q-2 0 -7.5 -2.5t-10.5 -2.5h-21zM523 841q-94 0 -179.5 -36.5t-147 -97.5t-97.5 -145.5t-36 -177.5t36 -177.5t97 -145.5t145.5 -97.5t177.5 -36.5q94 0 179.5 36.5t147 97.5t98 145.5t36.5 177.5t-36.5 177.5
t-97.5 145.5t-145.5 97.5t-177.5 36.5zM523.5 -34q-113.5 0 -210 56t-152.5 152.5t-56 209.5t56 209.5t152.5 152.5t210 56t209.5 -56t152.5 -152.5t56.5 -209.5t-56.5 -209.5t-152.5 -152.5t-209.5 -56zM566 614q-26 0 -43 -17q-12 -12 -12 -38q0 -21 17 -38q25 -18 42 -18
q26 0 43 17.5t17 38.5t-17 38t-47 17z" />
    <glyph glyph-name="arrow-up" unicode="&#xe615;" 
d="M923 140l-412 420l-412 -420l-35 35l447 456l446 -456z" />
    <glyph glyph-name="gotop" unicode="&#xe61c;" 
d="M512 834q-92 0 -175 -35.5t-143.5 -96t-96 -143.5t-35.5 -175t35.5 -175t96 -143.5t143.5 -96t175 -35.5q186 0 318 132t132 318q0 92 -35.5 175t-96 143.5t-143.5 96t-175 35.5zM715.5 302q-11.5 0 -19.5 8l-157 157v-364q0 -11 -8 -19.5t-19.5 -8.5t-19.5 8.5t-8 19.5
v363l-155 -155q-9 -9 -20 -9q-12 0 -20 8t-8 19.5t8 19.5l203 203q8 9 20 9t20 -8l203 -204q8 -8 8 -19.5t-8 -19.5t-19.5 -8zM741 586h-458q-12 0 -20 8t-8 19.5t8 19.5t20 8h458q12 0 20 -8t8 -19.5t-8 -19.5t-20 -8z" />
    <glyph glyph-name="arrow-down" unicode="&#xe67f;" 
d="M923 628l36 -37l-447 -451l-447 451l36 37l411 -414zM923 628z" />
    <glyph glyph-name="collect-checked" unicode="&#xe65a;" 
d="M950 496q-6 17 -19.5 29t-31.5 14l-230 36l-99 213q-8 17 -23.5 27.5t-34.5 10.5t-34.5 -10.5t-23.5 -27.5l-100 -213l-229 -36q-18 -2 -31.5 -14t-19.5 -29t-2 -34.5t17 -30.5l168 -173l-39 -241q-7 -38 26 -63q17 -12 37 -12q17 0 31 8l200 108l200 -108q14 -8 31 -8
q20 0 37 12q33 25 26 63l-39 241l169 173q26 29 14 65z" />
    <glyph glyph-name="arrow-left" unicode="&#xe6b7;" 
d="M668.5 795q10.5 0 18 -7.5t7.5 -18t-7 -18.5l-368 -373l368 -373q7 -8 7 -19t-7.5 -18.5t-18 -7.5t-18.5 8l-386 391q-8 8 -8 19t8 18l386 392q8 7 18.5 7z" />
    <glyph glyph-name="home" unicode="&#xe621;" 
d="M955 378l-443 414l-443 -413q-7 -6 -7 -15t6 -15.5t15 -6.5t15 6l414 386l414 -388q6 -5 14 -5q10 0 16 6q6 7 6 16t-7 15zM820 369q-9 0 -15.5 -6t-6.5 -15v-330h-171v230h-230v-230h-171v330q0 9 -6.5 15t-15.5 6t-15 -6t-6 -15v-372h257v229h144v-229h257v372
q0 9 -6 15t-15 6zM670 677h128v-114q0 -9 6.5 -15.5t15.5 -6.5t15 6.5t6 15.5v157h-171q-9 0 -15.5 -6t-6.5 -15t6.5 -15.5t15.5 -6.5z" />
    <glyph glyph-name="menu-1" unicode="&#xe62d;" 
d="M198 598.5q0 -19.5 14.5 -34t34 -14.5t33.5 14.5t14 34t-14 33.5t-33.5 14t-34 -14t-14.5 -33.5zM198 403q0 -20 14.5 -34t34 -14t33.5 14t14 34t-14 34t-33.5 14t-34 -14t-14.5 -34zM202 211q0 -20 14 -34t33.5 -14t34 14t14.5 34t-14.5 34t-34 14t-33.5 -14t-14 -34z
M410 566h390q14 0 23 9t9 23.5t-9 23t-23 8.5h-390q-15 0 -23.5 -8.5t-8.5 -23.5q0 -13 9.5 -22.5t22.5 -9.5zM797 438h-391q-14 0 -23 -8.5t-9 -23t9 -23.5t23 -9h391q14 0 23 9t9 23.5t-9 23t-23 8.5zM800 243h-390q-15 0 -23.5 -8.5t-8.5 -23t8.5 -23.5t23.5 -9h390
q14 0 23 9t9 23.5t-9 23t-23 8.5z" />
    <glyph glyph-name="menu" unicode="&#xe625;" 
d="M435 665.5q0 -31.5 22.5 -54t54.5 -22.5t54.5 22.5t22.5 54t-22.5 54t-54.5 22.5t-54.5 -22.5t-22.5 -54zM435 384q0 -32 22.5 -54.5t54.5 -22.5t54.5 22.5t22.5 54.5t-22.5 54.5t-54.5 22.5t-54.5 -22.5t-22.5 -54.5zM435 102.5q0 -31.5 22.5 -54t54.5 -22.5t54.5 22.5
t22.5 54t-22.5 54t-54.5 22.5t-54.5 -22.5t-22.5 -54z" />
    <glyph glyph-name="logout" unicode="&#xe62f;" 
d="M522 -66q-89 0 -170.5 35t-140 93.5t-93.5 139.5t-35 170q0 123 63.5 227.5t172.5 161.5q10 5 21 2t16 -13t2 -21t-13 -16q-96 -50 -151.5 -141.5t-55.5 -199.5q0 -104 51.5 -192.5t140 -140t192.5 -51.5t192.5 51.5t140 140t51.5 192.5q0 111 -58 203.5t-157 141.5
q-10 5 -13.5 15.5t1.5 20.5t15.5 13.5t20.5 -1.5q114 -55 179.5 -161t65.5 -232q0 -89 -35 -170t-93.5 -140t-139.5 -93.5t-170 -34.5v0v0zM522 313q-11 0 -19.5 8t-8.5 19v467q0 11 8 19t19.5 8t19.5 -8t8 -19v-467q0 -11 -8 -19t-19 -8v0z" />
    <glyph glyph-name="top" unicode="&#xe6a8;" 
d="M407 486h-22v-33h-98v-14h98v-36h-73v-194h-25v-14h218v14h-25v194h-73v36h98v14h-98v33zM458 209h-124v33h124v-33zM458 256h-124v35h124v-35zM458 305h-124v35h124v-35zM458 390v-36h-124v36h124zM492 577h-192v-84h192v84zM356 506h-34v57h34v-57zM414 506h-36v57h36
v-57zM470 506h-34v57h34v-57zM662 499h-29v-215h22v201h52v-201h22v215h-46q6 22 13 56h38v15h-105v-15h46q-5 -28 -13 -56zM626 569h-109v-14h45v-347h-29v-14h51v361h42v14zM688 290q5 29 5 61v102h-23v-101q0 -52 -11 -86.5t-34 -70.5l-2 -4h27v1q21 33 31 68
q20 -33 33 -67v-2h23l-1 3q-19 50 -48 96zM512 834q-186 0 -318 -132t-132 -318t132 -318t318 -132t318 132t132 318t-132 318t-318 132zM512 -50q-88 0 -168.5 34.5t-138.5 92.5t-92.5 138.5t-34.5 168.5t34.5 168.5t92.5 138.5t138.5 92.5t168.5 34.5t168.5 -34.5
t138.5 -92.5t92.5 -138.5t34.5 -168.5t-34.5 -168.5t-92.5 -138.5t-138.5 -92.5t-168.5 -34.5z" />
    <glyph glyph-name="theme-1" unicode="&#xe608;" 
d="M404 807h-301q-11 0 -18.5 -7.5t-7.5 -18.5v-301q0 -33 23 -56t55 -23h302q11 0 18.5 7.5t7.5 18.5v301q0 33 -23 56t-56 23v0zM431 453h-276q-11 0 -18.5 8t-7.5 19v275h275q11 0 19 -8t8 -19v-275zM620 807q-33 0 -56 -23t-23 -56v-301q0 -11 7.5 -18.5t18.5 -7.5h302
q32 0 55 23t23 56v301q0 11 -7.5 18.5t-18.5 7.5h-301zM593 453v0v275q0 11 8 19t19 8h275v-275q0 -11 -7.5 -19t-18.5 -8h-276zM869 342h-302q-11 0 -18.5 -7.5t-7.5 -18.5v-301q0 -32 23 -55t56 -23h301q11 0 18.5 7.5t7.5 18.5v301q0 32 -23 55t-55 23v0zM895 -11h-275
q-11 0 -19 7.5t-8 18.5v275h276q11 0 18.5 -7.5t7.5 -18.5v-275v0zM457 342h-302q-32 0 -55 -23t-23 -55v-301q0 -11 7.5 -18.5t18.5 -7.5h301q33 0 56 23t23 55v301q0 11 -7.5 18.5t-18.5 7.5v0zM431 15q0 -11 -8 -18.5t-19 -7.5h-275v275q0 11 7.5 18.5t18.5 7.5h276v-275
v0z" />
    <glyph glyph-name="message" unicode="&#xe606;" 
d="M469 468v0q0 -17 12 -29t29 -12t29 12t12 29v0v0q0 18 -12 30t-29 12t-29 -12t-12 -30v0zM657 468v0q0 -16 12 -28t28.5 -12t28.5 12t12 28v0v0q0 17 -12 29t-28.5 12t-28.5 -12t-12 -29v0zM283 468v0q0 -17 11.5 -29t28.5 -12t29 12t12 29v0v0q0 18 -12 30t-29 12
t-28.5 -12t-11.5 -30v0zM889 792h-758q-17 0 -29.5 -12.5t-12.5 -30.5v-552q0 -17 12.5 -29.5t29.5 -12.5h211l-64 -163l253 163h358q17 0 29.5 12.5t12.5 29.5v552q0 18 -12.5 30.5t-29.5 12.5zM890 174h-365l-207 -134l52 134h-241q-9 0 -15 6.5t-6 15.5v554q0 9 6 15.5
t15 6.5h761q9 0 15 -6.5t6 -15.5v-554q1 -9 -5.5 -15.5t-15.5 -6.5z" />
    <glyph glyph-name="good" unicode="&#xe605;" 
d="M183 406q5 0 10 2l-16 17q0 -3 -0.5 -10t-0.5 -11q1 2 7 2zM529 73q-47 -4 -94 8h-2v1q-25 7 -38 12h1l-1 -1h-3q0 1 1 1.5t1 1.5q-55 21 -104 68q-9 9 -24 26q5 -10 -1 -17l-11 11l5 5q-4 4 -12 14q2 0 3.5 1.5t3.5 2.5q2 -4 5 -4q-16 22 -25 41l-3 -1v3q1 0 1 1
q-18 39 -25 74h-11l-3 3l12 5q-1 3 -2 9.5t-1.5 11.5t-0.5 9v3q-1 10 -1 31q-2 0 -2 -1q0 2 2 5l1 1v9l-7 6q-5 -10 -4.5 -13.5t8.5 -12.5q-3 -10 -5 -13q0 -4 -1 -6q-1 -1 -5 -1q2 3 6 7q-12 12 -10 30l-7 3v-14q0 -9 1 -10q-1 0 -3 1q-2 -110 65 -201q5 2 6 5q5 -3 6 -4
l-7 -8l22 -26q3 7 3 9q7 -5 -3 -9l4 -4q1 -1 4.5 -3.5t4.5 -3.5q28 -27 60 -46h2v-1q9 -5 17 -9v1h4v-1h-1l16 -8l3 -1q16 -7 29 -10q0 1 0.5 3.5t0.5 4.5q3 -3 3 -9q69 -20 138 -10l-22 20v0zM186 345q0 3 1 3h2q0 -3 -1 -3h-2zM382 93v-2q-2 0 -2 1v2q1 -1 2 -1zM348 96
l10 -4q-5 -8 -10 4zM371 82l-8 7q8 10 10 0q1 0 2.5 -4t1.5 -7q-1 1 -3 2t-3 2zM377 81l5 5q3 2 4 1.5t1 -4.5q0 -1 1 -2t1 -2q-4 -6 -12 2zM409 79v3h2v-1q0 -2 -2 -2zM424 79h-4q0 1 0.5 1.5t0.5 1.5q1 0 2.5 -0.5l1.5 -0.5zM487 48q0 3 0.5 8.5t0.5 8.5l13 -12
q-8 -2 -14 -5v0zM526 65q-2 3 -2 5l2 2q3 -3 4 -5q-1 -2 -4 -2zM749 621q-4 -3 -4 0q0 2 -2 7q-67 63 -153 82l-6 -3q1 1 1 4q-30 7 -61 7q-2 -1 -7 -3l3 3q-27 0 -39 -1q0 -1 -2 -2l-1 2q-5 0 -18 -2l23 -23q83 7 162 -28l-4 4l14 -3q0 -3 -4 -5q15 -6 31 -19h2v-1
q38 -26 70 -65h1q75 -97 63 -218l23 -23q3 15 3 24l-8 4q4 6 8 -2q6 72 -19 140.5t-76 120.5zM478 705v2h3v-4q-1 0 -1.5 1t-1.5 1zM565 707q0 3 1 3h3q0 -3 -1 -3h-3zM563 696q4 8 10 -5zM588 701q15 7 22 -4zM663 659h-3q0 1 0.5 1.5t0.5 1.5q1 0 2 -1t2 -1zM672 659v3h3
v-2q-1 0 -3 -1zM729 626q0 3 1 3h3q0 -3 -2 -3h-2zM737 620q-2 1 -2 5l8 -6q-1 0 -3 0.5t-3 0.5zM825 495q0 -2 -1 -2h-3q0 2 1 2h3zM821 486q2 -5 -6 -9q-2 -1 -3 -2q1 3 2 7t2 7q2 0 5 -3zM777 555q0 -3 1 -3h-2l-2 3h3zM763 592q-1 0 -2 -2t-2 -3q-2 0 -2 2l1 2t1 3
q3 0 4 -2zM750 587v-2l-2 -2v3q0 1 2 1zM544 -39q40 3 80 15l-6 6q-42 -12 -82 -14l2 -2q1 -1 2 -1q4 0 4 -4v0zM535 -39q-3 2 -8 5q-5 0 -12 2q-37 0 -55 3v-3q0 1 -0.5 1.5t-0.5 1.5q-1 0 -4 0.5t-5 0.5q-7 -5 -11 0q1 0 3 1l-23 4l-5 -4q0 4 1 5q-50 13 -88 32q0 -1 1 -2
t1 -2l-16 8l0.5 1.5t0.5 2.5q-90 48 -148 133h-2q0 1 -0.5 2t-0.5 2q-77 117 -67 258l-6 -6q-1 0 -2 1q0 1 -1 2v-34q0 -96 44 -185l6 6l1 -2l-5 -5q0 -2 2 -5t3 -5q5 -2 7 -2l-3 -4q62 -113 184 -173v5l8 -9q96 -44 201 -36v0zM206 91v2l1 -0.5l1 -0.5q0 -1 -0.5 -2
t-0.5 -2zM99 426q4 37 12 64l-6 7q-11 -42 -15 -85l9 5v9zM598 788l-1 1q3 1 4 1t2.5 -1.5t1.5 -2.5q1 0 3 -0.5l2 -0.5q6 6 8 6t5 -5l-9 -1q50 -13 96 -38q5 2 15 2q-30 17 -77 35q0 -1 -2 1q-67 20 -130 20q-67 0 -127 -19l6 -6q37 11 71 14q0 1 1 3h2q0 -2 -1 -3
q63 7 130 -6zM474 797q0 2 2 2h2q0 -2 -1 -2h-3zM487 797q0 2 1 2h3q0 -2 -2 -2h-2zM914 261q2 5 5 20q-3 -2 -9 1l-3 -15zM921 291q0 1 -1.5 3t-1 3.5t4.5 3.5l0.5 -1.5t0.5 -3.5q18 85 2 170t-65 157h-2l0.5 0.5t0.5 1.5q-4 6 -14 19q-4 -4 -10 -1q44 -56 66 -117
q9 -6 3 -9q39 -113 9 -232h3t3 1.5t1 4.5zM885 568v3l3 -1v-3q-1 1 -3 1zM924 324q0 2 -1 2h3l1 -2h-3zM917 306q0 3 1 3h3q0 -3 -2 -3h-2zM811 683q-32 32 -77 61q-5 -2 -15 -2q68 -39 115 -98l6 6q-13 17 -29 33zM413 -56l7 -1l-6 6q-1 -2 -1 -5v0zM395 -47q1 1 1.5 2
t0.5 2q-144 37 -235 155h-2v1q-23 32 -37 60q-1 0 -3 -1l-2 -1l3 4q-14 26 -22 50l-7 -6l1 -1.5t1 -2.5q3 -2 11 -5v-3q-1 0 -4.5 0.5t-4.5 1.5q6 -15 14 -31q3 -3 3 -4q20 -40 45 -70h5q1 -1 1 -5l-5 4q94 -119 246 -156q-2 6 -10 6q2 0 0 0v0zM87 239q-2 3 -5 3
q3 -8 4 -13q1 0 1 2q2 0 4.5 0.5t3.5 0.5q-5 11 -6 20q-1 -2 -0.5 -6t-1.5 -7zM73 423q1 4 1.5 10.5t1.5 10.5q-5 2 1 6q0 1 1 3.5t1 3.5q-5 2 -6 4t-0.5 6t-0.5 6q0 -2 -1 -5.5t-1 -5.5l-2 -1q0 -2 -0.5 -7t-1.5 -8q4 -6 0 -11zM590 -49q-86 -16 -170 1v-5q0 -3 -1 -4
q32 -7 70 -9v2q2 0 2 -2q55 -2 103 9q2 6 -4 8v0zM607 -46q3 -3 6 -2q4 4 10 0q1 -1 1 -3q4 2 11.5 3.5t11.5 3.5l-8 7q-7 -2 -32 -9v0zM66 435q0 -4 -1 -7q0 1 1 3l1 2zM71 369h-4l4 3q0 27 1 41l-9 2q-5 -77 13 -147q4 -2 9 3q-12 44 -14 98zM79 261q2 -8 2 -10v1
q4 4 -2 9zM91 512l-7 7q-4 -10 -9 -33l4 -26q4 29 12 52zM77 495q0 3 2 3h2q0 -3 -1 -3h-3zM755 750h5l-1.5 -0.5l-1.5 -0.5q63 -42 113 -110l8 2q-1 -1 -1.5 -4t-1.5 -4q59 -88 72 -188h9q-10 76 -43 142l-3 3h2q-59 115 -168 180v-1q-4 2 -4 4q-84 49 -181.5 59
t-190.5 -22l7 -6q95 29 195.5 14.5t184.5 -68.5zM786 739l1 -3h-3q0 3 -1 3h3zM508 829l-2 -5q-1 0 -2 1t-2 1l0.5 1.5l0.5 1.5h5zM943 309h2v-3h-2q-6 -32 -15 -59l6 -6q33 94 22 194q-6 2 -9 5q8 -65 -4 -131zM951 333v-3q-3 0 -3 1v3q0 -1 3 -1zM783 392l13 -13
q1 58 -20.5 111.5t-62.5 94.5l-3 2h-1v2q-35 32 -77 52h-1q-59 27 -124 27l5 -5l4 4l1 -2l-4 -3l207 -207h1l2 -1v3q0 2 -1 6t-1 7h5q7 -9 -1 -19l57 -57q0 2 0.5 6t1 5.5l1.5 4.5t3 5t5 3q-4 -20 -10 -26zM535 667v-12q-11 6 0 12zM552 641q-10 4 -12 6q2 10 2 13
q2 -1 3.5 -4.5t3.5 -5t6 -0.5q3 -2 3 -5zM576 624v2l3 2v-3zM592 630q4 9 10 -5zM604 614q0 2 -1 2h2l2 -2h-3zM626 635q0 3 -2 3h3l1 -3h-2zM648 615h-3q0 1 0.5 1.5t0.5 1.5l1.5 -1t2.5 -1zM656 606q-4 1 -4.5 2.5t0 5.5t0.5 5q3 -3 10 -8q-1 -2 -6 -5zM670 616v3l2 -1v-3
q-2 0 -2 1zM661 600q0 2 1 2t3 -0.5t2 -1.5q0 -3 -1 -4q-3 1 -5 4zM666 590l14 2q-6 -6 -8 -7t-6 5zM681 594h6q-7 -4 -8 -5zM646 549q0 1 1 3t1 3q3 0 4 -2q-1 0 -2 -2t-2 -3zM672 558v3q3 0 3 -1v-3q0 1 -3 1zM655 522q-3 2 -3 5l3 1q2 -2 3 -5q-1 -1 -3 -1zM699 532v2
l2 -1v-2q-1 1 -2 1zM711 524q0 3 -1 3h3l1 -3h-3zM714 510q0 3 1 3q1 -1 3 -1.5t2 -1.5q0 -2 -1 -3q-3 0 -5 3zM718 488v11q9 -5 0 -11zM729 495l-6 7q0 2 1 2q3 2 10 3.5t10 2.5q-1 -2 -1.5 -5t-0.5 -5zM757 508q-3 -1 -4 -0.5t-3 2.5l-3 3v4h2q9 0 9 -5q2 -4 -1 -4z
M753 436q0 1 0.5 2t0.5 2q1 0 2.5 0.5t2.5 0.5l-2 -5h-4zM487 113l-3 -1v3q2 0 2 1l-27 26v-2l-22 22h2l-25 26l-8 -8l25 -20q0 -1 -0.5 -1.5t-0.5 -1.5q-7 3 -11 3q-5 -1 -13 -6l-4 12l-12 2q1 2 3.5 7.5t3.5 8.5h-24q0 4 -1 5q14 8 28 -1q1 2 1.5 6.5t0.5 7.5l-103 103
q0 -1 -1 -3q-3 5 -4 7l-19 17l-2 -1v3h1l-49 49q0 -10 2 -30l2 2l1.5 -0.5l1.5 -0.5q0 -1 1 -2.5t1 -2.5l-5 2q1 -19 7 -38h1q0 -1 -1 -2q12 -42 33 -73q1 2 5 9l1.5 1t3 1.5t4 -0.5t4.5 -5l-18 -6q17 -25 34 -44q11 0 18 1l-4.5 -3l-7.5 -5h-1l1 -1q24 -24 54 -43h2v-1
q46 -27 99 -37l2 2q5 0 15.5 1.5t15.5 1.5l-10 9v0zM251 316v3q3 0 3 -1v-3zM245 289h-4l0.5 0.5t0.5 1.5q1 0 2.5 -0.5l1.5 -0.5zM247 289l3 5h6zM273 304h-3l0.5 1l0.5 1q1 0 2.5 -0.5l1.5 -0.5zM283 315l-7 6l2 2l6 -7zM281 304l3 5h6zM266 267q1 2 0.5 5.5t0 6.5t3.5 4
h3q1 -8 -5 -17q-2 0 -2 1zM266 253q0 3 -1 3h3l1 -3h-3zM283 271l-4 11q5 1 13 4q4 -9 -5 -14q-2 -1 -4 -1zM295 271q0 -3 2 -3h-3l-1 3h2zM284 256h-3l1 1l1 1l1.5 -0.5t2.5 -0.5zM285 260q4 0 6 -2t2 -3t-1.5 -4.5l-1.5 -3.5q0 1 -2 5.5t-3 7.5zM329 251v2q1 0 1.5 -0.5
t1.5 -0.5q0 -1 -0.5 -2t-0.5 -2zM293 202v2l2 1v-2q-1 0 -2 -1zM319 237l10 10l6 -3l6 -3q-3 -3 -10.5 -3t-11.5 -1zM334 220v3l3 1v-2zM323 184q0 2 1 2h3q0 -2 -1 -2h-3zM343 181q-5 0 -10 3q5 7 8.5 7t11.5 -5q-2 -2 -10 -5zM376 179v-6l-5 8q1 0 2.5 -1t2.5 -1zM353 145
v12q3 3 5 3q3 -3 3 -5q-1 -2 -2 -5t-2 -5h-4zM401 136q-1 3 -0.5 4t2.5 3l3 3q3 0 8 -2q-1 -2 -3.5 -5.5t-4.5 -5.5q-2 0 -5 3zM419 136q0 3 1 3h3l-2 -3h-2zM439 130l-6 6l1 1l6 -6zM444 123q-1 2 -1 5l7 -6q-2 1 -6 1zM457 123l1 2l11 -12l-1 -1zM413 189l-7 6q0 -6 7 -6z
M503 98h-20h20zM222 638h7q0 1 1 1v-1h40q4 1 9 0l-34 45l19 53l-54 -19l-46 34v-46q8 0 12 5l-2 2v4q1 0 1.5 -0.5t1.5 -0.5q0 -1 -0.5 -2.5l-0.5 -1.5l6 -6l-18 -4v-7l-46 -32l54 -17l16 -54zM244 708v-1h-3v3zM208 707q-8 -9 -21 -2l4 11l17 -9l4 4q8 -4 15 0l4 -4
q-2 -1 -5 -2t-5 -2q-7 -2 -13 4zM213 694q2 -3 3.5 -9.5t3.5 -10.5q-11 5 -9 17q1 0 1.5 1.5zM196 649l-2 3h3q0 -3 1 -3h-2zM226 649q4 -8 5 -9l-5 3v6zM878 35l-34 46l1 3h-23q-5 3 -6 4h30l17 47l-55 -19l-45 34v-57l-4 -2q9 -3 17 1l-14 -14q-4 4 -13 6l-33 -24l37 -11
q1 2 1.5 5t0.5 5l-15 1h-3q0 1 0.5 1.5t0.5 1.5l1.5 -0.5t2.5 -0.5q12 6 24 6q1 -1 1 -5h-4q0 -11 1 -16l8 -3l16 -54l33 46h47q0 4 2 9q0 -2 0.5 -4.5t0.5 -4.5l7 -1v0zM781 118q5 6 7 5t6 -7q1 -2 2 -3zM800 117v3l2 1v-3q0 -1 -2 -1zM782 96q1 0 1.5 -1l0.5 -1l-0.5 -1.5
l-0.5 -1.5l-1 1v4zM782 87v2h2v-3q-1 1 -2 1zM793 89l14 3q-5 -7 -7.5 -7.5t-6.5 4.5zM815 78q0 -3 -2 -3h-2q0 3 1 3h3zM803 79q-2 -7 -3 -10q-1 1 -2 1q-4 4 5 9zM782 44q0 1 -0.5 2.5t-0.5 2.5q6 -4 7 -6q-4 0 -6 1v0zM791 41v3h4v-1q-3 -2 -4 -2v0zM806 19q2 12 2 14
q6 -3 5 -5.5t-7 -8.5zM834 53q-2 1 -2 4q1 3 10 3q5 -2 7 -3q-3 -2 -7 -2l-3 -4t-5 2v0zM842 39q-3 0 -8 2l3 8l9 -9q-1 0 -2 -0.5t-2 -0.5v0zM610 764q-1 4 -6 4t-7.5 -1.5t-4.5 -6.5l-7 -24q-1 -2 2 -8q1 -2 6 -5h5q2 -3 5 -5l1 7l-1 0.5l-1 0.5q3 2 3 5l2 5h-7l-1 -2
q0 -1 -0.5 -1.5t-0.5 -1.5l-1 -0.5t-2 0.5l-1 0.5l-1 0.5v3l6 24l0.5 1l0.5 1q1 0 2 0.5t1 -0.5q1 0 1.5 -0.5l0.5 -0.5v-3l-3 -16h6l4 14q1 4 -2 9zM639 757l-6 2l-6 -20l4 -4l1 1zM622 764l-5 -15q1 0 2 1v-3l-2 -1l-3 -6h7l6 21zM617 728l2 8h-6l-1 -6q-2 -4 0 -8
q0 1 2 2t3 2v2zM616 718q-2 0 0 0q0 -1 1 -1q2 -1 7 1q1 0 1.5 1t1.5 1h-1q-2 -1 -5.5 -1t-4.5 -1zM624 727q2 0 7 -2l3 11h-6zM653 754l-1 -3l-0.5 -1.5t-0.5 -2.5l5 -5q-3 0 -4 -1l-4 -16l-3 1l7 15q-1 -1 -4 -2t-5 -2l-14 -24l7 -2l5 9l6 -3l-2 -10l6 -2l10 45zM650 747z
M675 745l-1 -1l1 -2h-1l-18 -37l15 -8l3 6l-11 4l12 25q-1 0 -3 -1v3l3 1v-1l5 8h-1v-1h-3v3h3zM695 736l-20 -40l5 -4l20 40zM703 723l6 -3l-19 -34l5 -3l19 34l6 -4l4 7l-18 10zM742 708l-13 -11l5 16l-5 4l-8 -26l-10 -17l5 -4l10 17l22 18zM755 652q2 0 0 0l11 12l-8 6
l-5 -5l2 -2l-5 -6h2q3 0 3 -5v0zM776 679q0 5 -4 7q-5 2 -8 2q-4 0 -7 -4l-17 -19q-2 -5 -2 -7q0 -4 1 -5q5 2 8 2h-2q-1 0 -1 2.5t1 2.5l17 19q1 2 2 2q3 0 3 -2q1 0 1 -1q0 -2 -1 -2l-4 -4l5 -4l4 4q4 2 4 7zM749 648v0l-2.5 0.5t-3.5 0.5q1 -1 6 -1zM773 653l15 16l-4 4
l-24 -25q-3 -4 -3 -8q0 -2 2 -7q5 -3 7.5 -3t5.5 1h-6q1 5 2.5 6t5 0.5t4.5 0.5v-2l22 23l-5 5l-24 -25q-2 -1 -3 -1q-2 0 -2 1t-1 1.5l-1 0.5q0 3 2 3l7 8l-1 1h1zM787 657h2l2 -3h-3zM789 638l-20 -14l4 -5l9 6l4 -5l-5 -6l3 -5l29 35l-6 6l-18 -12l12 1l2 1l-1 -1h4
q-2 -1 -4 -2.5t-3 -2t-2 -0.5l-6 -6l-3 3l7 4zM787 618v-3l-3 -1v2q0 2 3 2zM830 625l-6 8l-36 -28l4 -5l14 10q0 -1 1 -1l1 -2v-2l-3 -4l-7 -9l4 -5l13 17q6 0 9 2l5 4q2 1 5 6q-3 8 -4 9zM817 611q-1 -1 -2.5 -1t-2.5 1h-1q0 3 -1 3l11 9l3 -3v-2.5v-2.5h-2zM815 567
l34 32l-5 7l-42 -20l4 -5l10 5l4 -5l-8 -8zM822 587l17 8l-14 -12zM825 567l-8 -4l3 -5l25 14l-21 -21l3 -7l18 11l1 1l20 11l-2 5l-27 -15l14 14v1h2l7 8l-4 6l-29 -16q0 -2 -1 -3h-1zM835 529l35 17l3 -7l6 3l-9 18l-6 -3l2 -6l-35 -17zM840 519l6 -16l7 2l-4 10l11 5
l3 -7l6 2l-3 8l12 5l4 -10l6 2l-6 17zM847 500l6 -16l6 2l-3 11l12 3l2 -7l6 2l-2 8l11 4l4 -12l6 3l-5 16zM856 470q3 -5 5.5 -6.5t7.5 -1.5l23 7q5 2 6 5q2 5 1 7v9q-1 0 -1 1v2l-43 -12zM893 484l1 -4v-2q0 -2 -2 -2l-23 -6h-3q-1 0 -1 3l-1 3zM861 470v-2l-2 1v2
q1 -1 2 -1zM425 33q1 0 1.5 -1t1.5 -1v-2l-7 -24v-1q-1 -4 -1 -9l3 1q2 1 5 6l6 24q1 3 -1 8q-2 2 -7 5h-5q-1 3 -5 5l-1 -6q1 0 1.5 -1t1.5 -1q-3 -2 -3 -5l-6 -24q-1 -2 1 -7q1 -3 6 -5q0 4 3 6h-1q-1 0 -1.5 0.5t-1.5 0.5v3q-2 -3 -5 -4q1 2 2 5t2 5t1 3q1 0 1.5 -1
t1.5 -1l3 18q0 1 1 1.5t1 1.5h2zM401 39q1 0 1.5 -0.5t1.5 -0.5v-3l-10 -34l6 -1l10 34q2 4 0 7q-2 4 -6 6q-3 1 -8 -2q-2 -1 -5 -6l-10 -34l6 -1l4 11q-5 4 3 8l3 13q0 1 1 1.5t1 1.5h2v0zM365 10l2 -1l15 25q-2 2 -2 5l2 1l3 -2l5 11l-6 3l-5 -9l-7 2l3 10l-7 3l-8 -38
q1 -1 3 -2.5t3 -2.5v-4l-1 -1v0zM370 40q0 3 1 3h2q0 -3 -1 -3h-2zM372 38l4 -2l-9 -16l5 18v0zM341 20l5 -2l19 41l-15 8l-3 -7l10 -5zM326 28l21 40l-5 2l-21 -40zM298 43l16 -10l4 6l-6 4l19 32l-4 4l-19 -33l-6 3zM273 59l5 -4l12 12l-5 -17l5 -4l8 27l10 15l-5 4
l-11 -15l-16 -13l-3 -5v0zM299 79q1 0 2 -0.5t2 -0.5l-1 -1h-4l0.5 1zM292 70q0 -2 -2 -2h-2q0 2 1 2h3zM254 83q-2 1 -2 3t2 2l4 4l-6 4l-3 -4q-3 -5 -3 -8q0 -9 9 -9h1q4 0 8 4l16 19q3 5 3 7.5t-2 4.5h-3l0.5 1.5l0.5 1.5q-5 3 -8 2q-3 0 -7 -4l-10 -13l7 -6l5 5l-2 4
l6 6q1 1 3 1t2 -1q1 0 1 -2.5t-1 -2.5l-16 -19q-1 -1 -3 -1t-2 1zM256 125q2 -2 2 -3q0 -2 -2 -2l-24 -26l4 -3l24 25q1 0 1.5 1.5t1.5 2.5l-1 1l-1 1h2v1q0 8 -9 10h-2q-3 0 -7 -3l-24 -26l5 -5l24 26q1 1 2 1zM251 139l-4 5l-8 -7l-4 5l6 8l-4 5l-29 -35l5 -7h2v2h1l35 24
v0zM217 122q1 1 1 3l2 1q0 1 0.5 1.5l0.5 0.5l9 11l2 -4l-10 -8h1l-1.5 -2t-1.5 -3q0 -2 -3 0zM200 156l-6 -4q-2 -1 -5 -6q0 -6 3 -7l6 -8l37 28l-4 5l-14 -10l-2 2l11 14l-5 5l-13 -15q-7 -3 -8 -4zM198 147l5 4q2 1 3 1t2 -1l3 -2l-11 -9l-3 2q-3 3 1 5zM215 176
q-1 0 -2 1t-2 1q5 2 6 2l-2 3l-10 -5l-4 5l4 3q0 2 1 3h1l1 1l-3 5l-8 -6v-1l-26 -24l3 -2q1 1 1.5 2.5t1.5 1.5l5 -5zM197 180l3 -4l-17 -7zM205 200l-4 7l-25 -14l21 21l-3 6l-39 -22l3 -5l8 4l20 11l-18 -18q1 -1 0 -2.5l-2 -3t-2 -1.5l3 -4l30 16zM187 234l-35 -16l-3 6
l-6 -2l7 -18l7 3l-3 6l35 16zM182 244l-5 13l-1 -1v5l-7 -3l4 -10l-11 -5l-3 8l-6 -3l2 -7l-11 -5l-4 10l-6 -3l6 -16zM174 265l-5 16l-6 -3l4 -11l-12 -4l-2 8l-6 -3l2 -7l-11 -4l-4 11l-6 -2l5 -17zM166 294q-3 5 -6 6q-3 2 -7 0l-15 -4l-5 -5q0 1 -1 2t-1 2h-1
q-5 -3 -6 -5q-3 -5 -1 -8l2 -9l44 12zM129 281l-1 4v2q0 2 2 2l23 6h2q2 0 2 -3l3 -3zM558 760l3 13l-12 -4l-10 7v-12l-12 -9l13 -4l4 -12l7 11h13zM442 750l12 -4l1 -2v1q1 0 2.5 0.5t2.5 0.5l-2 -5l-1 1l2 -6l7 8h12l-7 11l3 13l-12 -4l-10 7v-12h1q1 -2 4 -4.5t5 -3.5
l-14 4zM110 336l9 -2l-5 5zM139 341v4h1l3 9l-13 -4l-10 8v-13q1 -1 6 -16l-2 2v-2h1v-1l1 -7l8 12h13zM137 343h-4l0.5 1l0.5 1q1 0 2 -0.5t2 -0.5zM473 7l4 13l-13 -4l-10 8v-13l-11 -7l12 -4l4 -13l8 12h12l-6 8v0zM568 11l3 13l-2 -1q0 -1 -0.5 -1.5t-0.5 -1.5h-5l-4 -1
l-10 7v-12l-12 -8l13 -4l4 -12l7 11h13l-6 10v0zM118 427l12 -4l4 -12l8 11h12l-7 10l3 13l-5 -1l-2 -3q0 -1 -4 -1l-10 7v-12zM898 440l-13 -4l-10 8v-13l-11 -8l12 -3l4 -13l8 11h6l4 4v-4h4l-8 8q-2 -3 -5 -3q3 5 3 9q1 0 1 -1zM895 347l-12 -4l-5 4h-7v-7l2 1l-1 -1.5
l-1 -1.5l-2 -5q-3 0 -3 2l-6 -4l13 -3l3 -13l8 11h13l-8 10zM453 641l-67 -66l33 -33l-14 -14l-33 33l-116 -116l-15 15l116 116l-33 33l15 15l33 -33l67 67zM337 577q-44 -44 -100 -91l-12 -11l-14 15l12 12q60 52 99 89zM418 664l-45 -44l-15 15l44 44zM390 524l-105 -108
l-15 14l105 108zM476 606l-45 -44l-15 15l44 44zM555 541l-14 -13l46 -45l-16 -15l-45 45l-15 -15l45 -46l-15 -15l-45 46l-17 -17l47 -46l-15 -16l-109 109l16 15l46 -47l17 17l-46 45l15 15l46 -45l15 15l-45 45l15 16l45 -46l13 13zM298 402l74 74q10 10 23 10t23 -8
l58 -58q9 -10 8.5 -23t-10.5 -23l-51 -51q-10 -10 -23 -10t-23 8l-10 10l15 16l10 -11q9 -6 17 2l1 1l-73 73l-24 -24zM381 455l73 -73l6 6q4 3 4.5 7.5t-2.5 7.5l-58 58q-8 6 -17 0zM351 425l73 -73l15 15l-73 73zM566 420l102 7l-121 -121l-15 15l81 81l-47 -4v22z
M610 251l-21 -22l90 -89l-16 -15l-89 89l-45 -45l-16 15l46 45l-90 90l15 15l90 -90l21 22zM792 257q-54 16 -100 38l-32 -33q-6 -5 -6 -12t6 -13l58 -58l-15 -15l-58 58q-12 11 -12 27t12 27l27 28q-15 7 -63 35l12 18q30 -20 66 -38l43 43l15 -15l-37 -38q35 -17 89 -33z
" />
    <glyph glyph-name="publish" unicode="&#xe61d;" 
d="M473 220q-10 10 0 20l402 402q13 12 13 29.5t-13 30.5l-35 35q-13 13 -30.5 13t-29.5 -13l-402 -402q-10 -9 -20 0.5t0 19.5l402 402q21 21 50 21t50 -21l35 -35q21 -21 21 -50t-21 -50l-402 -402q-10 -10 -20 0zM473 220l-115 115q-10 10 0 20t20 0l115 -115
q10 -10 0 -20t-20 0zM834 581l-115 115q-10 10 0 20t20 0l115 -115q10 -10 0 -20t-20 0zM326 188q-6 5 -4 13l32 147q2 6 7 9t10.5 2t8.5 -6t2 -11l-33 -148q-1 -5 -6 -8.5t-11 -1.5q-4 1 -6 4zM325 188q-3 3 -3 6q-2 6 1.5 11t8.5 6l148 33q6 1 11 -2t6 -8.5t-2 -10.5
t-9 -7l-148 -32q-7 -2 -13 4zM851 -26h-678q-29 0 -50 21t-21 50v678q0 29 21 50t50 21h446q6 0 10 -4.5t4 -10t-4 -10t-10 -4.5h-446q-18 0 -30 -12t-12 -30v-678q0 -18 12 -30t30 -12h678q18 0 30 12t12 30v436q0 5 4.5 9.5t10 4.5t10 -4.5t4.5 -9.5v-436q0 -29 -21 -50
t-50 -21z" />
    <glyph glyph-name="home-checked" unicode="&#xe6af;" 
d="M945 435l-440 411l-439 -410q-6 -6 -6.5 -14.5t5.5 -15t15 -7t15 5.5l410 383l411 -384q6 -6 14 -6v0v0q9 0 16 7q6 6 5.5 15t-6.5 15zM810.5 427q-8.5 0 -15 -6.5t-6.5 -15.5v-326h-170v227h-227v-227h-171v326q0 9 -6 15.5t-15 6.5t-15 -6.5t-6 -15.5v-369h255v227h142
v-227h256v369q0 9 -6.5 15.5t-15 6.5zM662 732h127v-114q0 -8 6.5 -14.5t15 -6.5t15 6.5t6.5 14.5v157h-170q-9 0 -15.5 -6.5t-6.5 -15.5t6.5 -15t15.5 -6zM208 70h196v218h191v-218h211v337h118l-419 397l-433 -391l134 -6z" />
  </font>
</defs>
</svg>
